<svg width="445" height="94" viewBox="0 0 445 94" fill="none" xmlns="http://www.w3.org/2000/svg">
<path opacity="0.8" d="M5.835 62.135C4.755 62.145 3.83 61.945 3.06 61.535C2.29 61.115 1.7 60.51 1.29 59.72C0.88 58.93 0.675 57.98 0.675 56.87C0.675 55.76 0.895 54.78 1.335 53.93C1.775 53.07 2.395 52.4 3.195 51.92C4.005 51.44 4.96 51.2 6.06 51.2C7.04 51.2 7.9 51.42 8.64 51.86C9.38 52.3 9.955 52.915 10.365 53.705C10.775 54.485 10.98 55.405 10.98 56.465C10.98 57.615 10.755 58.615 10.305 59.465C9.865 60.305 9.255 60.96 8.475 61.43C7.705 61.9 6.825 62.135 5.835 62.135ZM5.775 60.38C6.405 60.38 6.96 60.225 7.44 59.915C7.93 59.605 8.31 59.16 8.58 58.58C8.86 58 9 57.295 9 56.465C9 55.395 8.73 54.54 8.19 53.9C7.65 53.26 6.925 52.94 6.015 52.94C5.365 52.94 4.785 53.105 4.275 53.435C3.775 53.765 3.38 54.22 3.09 54.8C2.8 55.38 2.655 56.06 2.655 56.84C2.655 57.97 2.93 58.845 3.48 59.465C4.04 60.075 4.805 60.38 5.775 60.38ZM15.0502 62.135C14.2102 62.135 13.5752 61.85 13.1452 61.28C12.7252 60.71 12.5202 59.92 12.5302 58.91L12.5602 54.425H14.3902L14.3602 58.745C14.3502 59.265 14.4402 59.675 14.6302 59.975C14.8202 60.275 15.1202 60.425 15.5302 60.425C15.8502 60.425 16.1452 60.33 16.4152 60.14C16.6952 59.95 16.9352 59.63 17.1352 59.18C17.3352 58.72 17.4902 58.105 17.6002 57.335C17.7202 56.555 17.7802 55.585 17.7802 54.425H19.5502V62H17.7052L17.8102 60.275C17.5102 60.885 17.1202 61.35 16.6402 61.67C16.1702 61.98 15.6402 62.135 15.0502 62.135ZM26.3575 56.195C26.1575 56.125 25.9025 56.09 25.5925 56.09C25.0525 56.09 24.6175 56.29 24.2875 56.69C23.9575 57.08 23.7125 57.71 23.5525 58.58C23.4025 59.44 23.3275 60.58 23.3275 62H21.5125V57.11L21.4975 54.425H23.3275L23.2375 56.54C23.4975 55.73 23.8575 55.155 24.3175 54.815C24.7875 54.475 25.2875 54.305 25.8175 54.305C25.9775 54.305 26.1275 54.315 26.2675 54.335C26.4075 54.355 26.5375 54.385 26.6575 54.425L26.3575 56.195ZM34.643 62.135C33.493 62.135 32.583 61.805 31.913 61.145C31.243 60.475 30.908 59.545 30.908 58.355C30.908 57.555 31.073 56.85 31.403 56.24C31.733 55.63 32.193 55.155 32.783 54.815C33.373 54.475 34.053 54.305 34.823 54.305C35.463 54.305 36.023 54.43 36.503 54.68C36.983 54.93 37.373 55.32 37.673 55.85L36.368 56.84C36.178 56.52 35.958 56.29 35.708 56.15C35.468 56.01 35.173 55.94 34.823 55.94C34.233 55.94 33.748 56.16 33.368 56.6C32.998 57.04 32.813 57.62 32.813 58.34C32.813 59.04 32.978 59.58 33.308 59.96C33.648 60.33 34.133 60.515 34.763 60.515C35.093 60.515 35.398 60.44 35.678 60.29C35.968 60.14 36.208 59.905 36.398 59.585L37.673 60.605C37.333 61.155 36.903 61.55 36.383 61.79C35.863 62.02 35.283 62.135 34.643 62.135ZM41.0804 62.135C40.2404 62.135 39.6054 61.85 39.1754 61.28C38.7554 60.71 38.5504 59.92 38.5604 58.91L38.5904 54.425H40.4204L40.3904 58.745C40.3804 59.265 40.4704 59.675 40.6604 59.975C40.8504 60.275 41.1504 60.425 41.5604 60.425C41.8804 60.425 42.1754 60.33 42.4454 60.14C42.7254 59.95 42.9654 59.63 43.1654 59.18C43.3654 58.72 43.5204 58.105 43.6304 57.335C43.7504 56.555 43.8104 55.585 43.8104 54.425H45.5804V62H43.7354L43.8404 60.275C43.5404 60.885 43.1504 61.35 42.6704 61.67C42.2004 61.98 41.6704 62.135 41.0804 62.135ZM50.1827 62.135C49.1427 62.135 48.3477 61.94 47.7977 61.55C47.2477 61.15 46.9277 60.595 46.8377 59.885L48.3827 59.51C48.4427 59.89 48.6177 60.185 48.9077 60.395C49.1977 60.595 49.6127 60.695 50.1527 60.695C50.5927 60.695 50.9227 60.625 51.1427 60.485C51.3727 60.345 51.4877 60.155 51.4877 59.915C51.4877 59.675 51.3627 59.49 51.1127 59.36C50.8727 59.23 50.4977 59.115 49.9877 59.015C49.4177 58.905 48.9277 58.765 48.5177 58.595C48.1177 58.425 47.8077 58.195 47.5877 57.905C47.3777 57.605 47.2727 57.215 47.2727 56.735C47.2727 56.275 47.4027 55.865 47.6627 55.505C47.9227 55.135 48.2777 54.845 48.7277 54.635C49.1877 54.415 49.7127 54.305 50.3027 54.305C51.0927 54.305 51.7377 54.49 52.2377 54.86C52.7477 55.23 53.0527 55.705 53.1527 56.285L51.6377 56.69C51.5677 56.4 51.4177 56.175 51.1877 56.015C50.9577 55.845 50.6477 55.76 50.2577 55.76C49.8677 55.76 49.5677 55.84 49.3577 56C49.1577 56.16 49.0577 56.36 49.0577 56.6C49.0577 56.84 49.1727 57.03 49.4027 57.17C49.6427 57.3 50.0477 57.425 50.6177 57.545C51.1477 57.655 51.6077 57.795 51.9977 57.965C52.3977 58.125 52.7127 58.35 52.9427 58.64C53.1727 58.92 53.2877 59.3 53.2877 59.78C53.2877 60.25 53.1527 60.665 52.8827 61.025C52.6227 61.375 52.2577 61.65 51.7877 61.85C51.3177 62.04 50.7827 62.135 50.1827 62.135ZM57.6664 62.135C56.7564 62.135 56.0464 61.885 55.5364 61.385C55.0364 60.885 54.7914 60.23 54.8014 59.42L54.8614 55.955H53.5714V54.425H54.8914L54.9064 52.865H56.7364L56.7064 54.425H59.1814V55.955H56.6914L56.6464 59.225C56.6364 59.635 56.7364 59.96 56.9464 60.2C57.1664 60.43 57.4914 60.545 57.9214 60.545C58.1514 60.545 58.3664 60.515 58.5664 60.455C58.7664 60.395 58.9764 60.285 59.1964 60.125L59.7364 61.535C59.5064 61.735 59.2114 61.885 58.8514 61.985C58.4914 62.085 58.0964 62.135 57.6664 62.135ZM63.9441 54.305C65.0741 54.305 65.9591 54.645 66.5991 55.325C67.2491 55.995 67.5741 56.905 67.5741 58.055C67.5741 58.835 67.4091 59.535 67.0791 60.155C66.7591 60.765 66.3041 61.25 65.7141 61.61C65.1241 61.96 64.4391 62.135 63.6591 62.135C62.5291 62.135 61.6391 61.8 60.9891 61.13C60.3491 60.46 60.0291 59.545 60.0291 58.385C60.0291 57.605 60.1891 56.91 60.5091 56.3C60.8391 55.68 61.2941 55.195 61.8741 54.845C62.4641 54.485 63.1541 54.305 63.9441 54.305ZM63.7191 60.53C64.3091 60.53 64.7841 60.305 65.1441 59.855C65.5041 59.405 65.6841 58.805 65.6841 58.055C65.6841 57.375 65.5241 56.85 65.2041 56.48C64.8941 56.11 64.4641 55.925 63.9141 55.925C63.3041 55.925 62.8191 56.15 62.4591 56.6C62.0991 57.05 61.9191 57.645 61.9191 58.385C61.9191 59.065 62.0741 59.595 62.3841 59.975C62.7041 60.345 63.1491 60.53 63.7191 60.53ZM69.1635 62V54.425H70.9935L70.9035 56.285C71.2135 55.595 71.6135 55.095 72.1035 54.785C72.6035 54.465 73.1385 54.305 73.7085 54.305C74.2585 54.305 74.7435 54.455 75.1635 54.755C75.5835 55.055 75.8835 55.525 76.0635 56.165C76.3835 55.535 76.8035 55.07 77.3235 54.77C77.8535 54.46 78.3985 54.305 78.9585 54.305C79.7985 54.305 80.4335 54.6 80.8635 55.19C81.3035 55.77 81.5185 56.605 81.5085 57.695L81.4785 62H79.6485L79.6785 57.755C79.6785 57.205 79.5785 56.78 79.3785 56.48C79.1785 56.17 78.8685 56.015 78.4485 56.015C78.1585 56.015 77.8785 56.11 77.6085 56.3C77.3485 56.48 77.1135 56.795 76.9035 57.245C76.7035 57.695 76.5435 58.31 76.4235 59.09C76.3035 59.86 76.2385 60.83 76.2285 62H74.4135V57.755C74.4135 57.205 74.3185 56.78 74.1285 56.48C73.9385 56.17 73.6335 56.015 73.2135 56.015C72.9235 56.015 72.6435 56.11 72.3735 56.3C72.1135 56.48 71.8785 56.795 71.6685 57.245C71.4685 57.695 71.3035 58.31 71.1735 59.09C71.0535 59.86 70.9885 60.83 70.9785 62H69.1635ZM85.1878 54.425V62H83.3578V54.425H85.1878ZM84.2728 53.225C83.9128 53.225 83.6278 53.115 83.4178 52.895C83.2078 52.675 83.1028 52.41 83.1028 52.1C83.1028 51.79 83.2078 51.525 83.4178 51.305C83.6278 51.085 83.9128 50.975 84.2728 50.975C84.6328 50.975 84.9178 51.085 85.1278 51.305C85.3378 51.525 85.4428 51.79 85.4428 52.1C85.4428 52.41 85.3378 52.675 85.1278 52.895C84.9178 53.115 84.6328 53.225 84.2728 53.225ZM86.6121 62V60.635L90.3471 55.955H86.7621V54.425H92.6421V55.745L88.9071 60.47H92.6271V62H86.6121ZM97.4464 62.135C96.6264 62.135 95.9164 61.985 95.3164 61.685C94.7264 61.375 94.2714 60.935 93.9514 60.365C93.6314 59.795 93.4714 59.115 93.4714 58.325C93.4714 57.535 93.6364 56.84 93.9664 56.24C94.2964 55.63 94.7414 55.155 95.3014 54.815C95.8714 54.475 96.5164 54.305 97.2364 54.305C98.4064 54.305 99.2664 54.705 99.8164 55.505C100.376 56.295 100.571 57.39 100.401 58.79H95.3314C95.3714 59.32 95.5864 59.745 95.9764 60.065C96.3664 60.385 96.9014 60.545 97.5814 60.545C97.9014 60.545 98.2214 60.475 98.5414 60.335C98.8714 60.195 99.1514 59.98 99.3814 59.69L100.446 60.77C100.106 61.2 99.6914 61.535 99.2014 61.775C98.7214 62.015 98.1364 62.135 97.4464 62.135ZM97.2664 55.685C96.7564 55.685 96.3364 55.845 96.0064 56.165C95.6764 56.485 95.4664 56.915 95.3764 57.455H98.8264C98.8464 56.835 98.7114 56.385 98.4214 56.105C98.1314 55.825 97.7464 55.685 97.2664 55.685ZM109.056 50.9V62H107.196L107.256 60.68C106.986 61.15 106.636 61.51 106.206 61.76C105.776 62.01 105.276 62.135 104.706 62.135C104.046 62.135 103.486 61.985 103.026 61.685C102.566 61.375 102.216 60.95 101.976 60.41C101.736 59.87 101.616 59.25 101.616 58.55C101.616 57.71 101.781 56.975 102.111 56.345C102.441 55.705 102.891 55.205 103.461 54.845C104.041 54.485 104.691 54.305 105.411 54.305C105.791 54.305 106.136 54.37 106.446 54.5C106.766 54.63 107.031 54.81 107.241 55.04L107.226 54.425V50.9H109.056ZM105.546 55.925C104.926 55.925 104.431 56.16 104.061 56.63C103.691 57.1 103.506 57.715 103.506 58.475C103.506 59.125 103.646 59.63 103.926 59.99C104.206 60.35 104.591 60.53 105.081 60.53C105.481 60.53 105.841 60.415 106.161 60.185C106.491 59.955 106.751 59.635 106.941 59.225C107.131 58.815 107.226 58.345 107.226 57.815C107.226 57.225 107.076 56.765 106.776 56.435C106.476 56.095 106.066 55.925 105.546 55.925ZM114.647 65V54.425H116.492L116.432 55.775C116.702 55.305 117.052 54.945 117.482 54.695C117.912 54.435 118.412 54.305 118.982 54.305C119.652 54.305 120.217 54.46 120.677 54.77C121.137 55.08 121.487 55.505 121.727 56.045C121.967 56.585 122.087 57.2 122.087 57.89C122.087 58.73 121.922 59.47 121.592 60.11C121.262 60.75 120.807 61.25 120.227 61.61C119.657 61.96 119.007 62.135 118.277 62.135C117.897 62.135 117.552 62.07 117.242 61.94C116.932 61.81 116.672 61.635 116.462 61.415L116.477 62V65H114.647ZM118.142 60.53C118.772 60.53 119.272 60.29 119.642 59.81C120.012 59.33 120.197 58.71 120.197 57.95C120.197 57.31 120.057 56.815 119.777 56.465C119.497 56.105 119.112 55.925 118.622 55.925C118.212 55.925 117.847 56.04 117.527 56.27C117.207 56.49 116.952 56.805 116.762 57.215C116.572 57.615 116.477 58.08 116.477 58.61C116.477 59.2 116.627 59.67 116.927 60.02C117.227 60.36 117.632 60.53 118.142 60.53ZM125.86 62.135C125.14 62.135 124.595 61.94 124.225 61.55C123.855 61.16 123.67 60.605 123.67 59.885V50.9H125.5V59.735C125.5 60.275 125.75 60.545 126.25 60.545C126.5 60.545 126.72 60.485 126.91 60.365L127.36 61.7C127.2 61.82 126.985 61.92 126.715 62C126.445 62.09 126.16 62.135 125.86 62.135ZM135.057 54.455V62H133.197L133.257 60.68C132.987 61.14 132.632 61.5 132.192 61.76C131.762 62.01 131.267 62.135 130.707 62.135C130.047 62.135 129.487 61.985 129.027 61.685C128.567 61.375 128.217 60.95 127.977 60.41C127.737 59.87 127.617 59.25 127.617 58.55C127.617 57.71 127.782 56.975 128.112 56.345C128.442 55.705 128.892 55.205 129.462 54.845C130.042 54.485 130.692 54.305 131.412 54.305C131.892 54.305 132.317 54.41 132.687 54.62C133.057 54.82 133.342 55.09 133.542 55.43L133.722 54.455H135.057ZM131.547 55.925C130.927 55.925 130.432 56.16 130.062 56.63C129.692 57.1 129.507 57.715 129.507 58.475C129.507 59.125 129.647 59.63 129.927 59.99C130.207 60.35 130.592 60.53 131.082 60.53C131.482 60.53 131.842 60.415 132.162 60.185C132.492 59.955 132.752 59.635 132.942 59.225C133.132 58.815 133.227 58.345 133.227 57.815C133.227 57.225 133.077 56.765 132.777 56.435C132.477 56.095 132.067 55.925 131.547 55.925ZM140.21 62.135C139.3 62.135 138.59 61.885 138.08 61.385C137.58 60.885 137.335 60.23 137.345 59.42L137.405 55.955H136.115V54.425H137.435L137.45 52.865H139.28L139.25 54.425H141.725V55.955H139.235L139.19 59.225C139.18 59.635 139.28 59.96 139.49 60.2C139.71 60.43 140.035 60.545 140.465 60.545C140.695 60.545 140.91 60.515 141.11 60.455C141.31 60.395 141.52 60.285 141.74 60.125L142.28 61.535C142.05 61.735 141.755 61.885 141.395 61.985C141.035 62.085 140.64 62.135 140.21 62.135ZM143.454 62V55.955H142.014V54.425H143.454V54.02C143.454 53.35 143.589 52.775 143.859 52.295C144.139 51.805 144.514 51.425 144.984 51.155C145.464 50.885 146.014 50.75 146.634 50.75C147.374 50.75 147.964 50.935 148.404 51.305C148.854 51.665 149.124 52.21 149.214 52.94L147.654 53.12C147.624 52.86 147.514 52.66 147.324 52.52C147.134 52.37 146.889 52.295 146.589 52.295C146.179 52.295 145.854 52.43 145.614 52.7C145.384 52.97 145.269 53.355 145.269 53.855V54.425H147.519V55.955H145.299V62H143.454ZM151.732 54.305C152.862 54.305 153.747 54.645 154.387 55.325C155.037 55.995 155.362 56.905 155.362 58.055C155.362 58.835 155.197 59.535 154.867 60.155C154.547 60.765 154.092 61.25 153.502 61.61C152.912 61.96 152.227 62.135 151.447 62.135C150.317 62.135 149.427 61.8 148.777 61.13C148.137 60.46 147.817 59.545 147.817 58.385C147.817 57.605 147.977 56.91 148.297 56.3C148.627 55.68 149.082 55.195 149.662 54.845C150.252 54.485 150.942 54.305 151.732 54.305ZM151.507 60.53C152.097 60.53 152.572 60.305 152.932 59.855C153.292 59.405 153.472 58.805 153.472 58.055C153.472 57.375 153.312 56.85 152.992 56.48C152.682 56.11 152.252 55.925 151.702 55.925C151.092 55.925 150.607 56.15 150.247 56.6C149.887 57.05 149.707 57.645 149.707 58.385C149.707 59.065 149.862 59.595 150.172 59.975C150.492 60.345 150.937 60.53 151.507 60.53ZM161.812 56.195C161.612 56.125 161.357 56.09 161.047 56.09C160.507 56.09 160.072 56.29 159.742 56.69C159.412 57.08 159.167 57.71 159.007 58.58C158.857 59.44 158.782 60.58 158.782 62H156.967V57.11L156.952 54.425H158.782L158.692 56.54C158.952 55.73 159.312 55.155 159.772 54.815C160.242 54.475 160.742 54.305 161.272 54.305C161.432 54.305 161.582 54.315 161.722 54.335C161.862 54.355 161.992 54.385 162.112 54.425L161.812 56.195ZM163.075 62V54.425H164.905L164.815 56.285C165.125 55.595 165.525 55.095 166.015 54.785C166.515 54.465 167.05 54.305 167.62 54.305C168.17 54.305 168.655 54.455 169.075 54.755C169.495 55.055 169.795 55.525 169.975 56.165C170.295 55.535 170.715 55.07 171.235 54.77C171.765 54.46 172.31 54.305 172.87 54.305C173.71 54.305 174.345 54.6 174.775 55.19C175.215 55.77 175.43 56.605 175.42 57.695L175.39 62H173.56L173.59 57.755C173.59 57.205 173.49 56.78 173.29 56.48C173.09 56.17 172.78 56.015 172.36 56.015C172.07 56.015 171.79 56.11 171.52 56.3C171.26 56.48 171.025 56.795 170.815 57.245C170.615 57.695 170.455 58.31 170.335 59.09C170.215 59.86 170.15 60.83 170.14 62H168.325V57.755C168.325 57.205 168.23 56.78 168.04 56.48C167.85 56.17 167.545 56.015 167.125 56.015C166.835 56.015 166.555 56.11 166.285 56.3C166.025 56.48 165.79 56.795 165.58 57.245C165.38 57.695 165.215 58.31 165.085 59.09C164.965 59.86 164.9 60.83 164.89 62H163.075ZM191.176 54.425H192.991L190.306 62H188.056L186.571 56.945L184.801 62H182.551L180.166 54.425H182.071L183.751 60.215L185.731 54.425H187.531L189.196 60.26L191.176 54.425ZM195.725 54.425V62H193.895V54.425H195.725ZM194.81 53.225C194.45 53.225 194.165 53.115 193.955 52.895C193.745 52.675 193.64 52.41 193.64 52.1C193.64 51.79 193.745 51.525 193.955 51.305C194.165 51.085 194.45 50.975 194.81 50.975C195.17 50.975 195.455 51.085 195.665 51.305C195.875 51.525 195.98 51.79 195.98 52.1C195.98 52.41 195.875 52.675 195.665 52.895C195.455 53.115 195.17 53.225 194.81 53.225ZM200.884 62.135C199.974 62.135 199.264 61.885 198.754 61.385C198.254 60.885 198.009 60.23 198.019 59.42L198.079 55.955H196.789V54.425H198.109L198.124 52.865H199.954L199.924 54.425H202.399V55.955H199.909L199.864 59.225C199.854 59.635 199.954 59.96 200.164 60.2C200.384 60.43 200.709 60.545 201.139 60.545C201.369 60.545 201.584 60.515 201.784 60.455C201.984 60.395 202.194 60.285 202.414 60.125L202.954 61.535C202.724 61.735 202.429 61.885 202.069 61.985C201.709 62.085 201.314 62.135 200.884 62.135ZM203.753 62V50.9H205.583L205.598 54.425L205.493 56.315C205.793 55.675 206.188 55.18 206.678 54.83C207.178 54.48 207.748 54.305 208.388 54.305C209.238 54.305 209.878 54.6 210.308 55.19C210.748 55.77 210.963 56.605 210.953 57.695L210.923 62H209.093L209.123 57.845C209.133 57.255 209.038 56.805 208.838 56.495C208.648 56.175 208.338 56.015 207.908 56.015C207.578 56.015 207.273 56.11 206.993 56.3C206.713 56.49 206.468 56.815 206.258 57.275C206.048 57.725 205.883 58.34 205.763 59.12C205.643 59.89 205.578 60.85 205.568 62H203.753ZM218.269 54.425V62H216.439V54.425H218.269ZM217.354 53.225C216.994 53.225 216.709 53.115 216.499 52.895C216.289 52.675 216.184 52.41 216.184 52.1C216.184 51.79 216.289 51.525 216.499 51.305C216.709 51.085 216.994 50.975 217.354 50.975C217.714 50.975 217.999 51.085 218.209 51.305C218.419 51.525 218.524 51.79 218.524 52.1C218.524 52.41 218.419 52.675 218.209 52.895C217.999 53.115 217.714 53.225 217.354 53.225ZM220.218 62V54.425H222.048L221.958 56.33C222.248 55.68 222.643 55.18 223.143 54.83C223.643 54.48 224.213 54.305 224.853 54.305C225.703 54.305 226.343 54.6 226.773 55.19C227.213 55.77 227.428 56.605 227.418 57.695L227.388 62H225.558L225.588 57.845C225.598 57.255 225.503 56.805 225.303 56.495C225.113 56.175 224.803 56.015 224.373 56.015C224.043 56.015 223.738 56.11 223.458 56.3C223.178 56.49 222.933 56.815 222.723 57.275C222.513 57.725 222.348 58.34 222.228 59.12C222.108 59.89 222.043 60.85 222.033 62H220.218ZM229.181 58.985V57.335H233.666V58.985H229.181ZM235.54 62V50.9H237.37V54.425L237.31 55.805C237.58 55.325 237.93 54.955 238.36 54.695C238.8 54.435 239.305 54.305 239.875 54.305C240.545 54.305 241.11 54.46 241.57 54.77C242.03 55.08 242.38 55.505 242.62 56.045C242.86 56.585 242.98 57.2 242.98 57.89C242.98 58.73 242.815 59.47 242.485 60.11C242.155 60.75 241.7 61.25 241.12 61.61C240.55 61.96 239.905 62.135 239.185 62.135C238.695 62.135 238.265 62.035 237.895 61.835C237.525 61.625 237.245 61.35 237.055 61.01L236.875 62H235.54ZM239.035 60.53C239.665 60.53 240.165 60.29 240.535 59.81C240.905 59.33 241.09 58.71 241.09 57.95C241.09 57.31 240.95 56.815 240.67 56.465C240.39 56.105 240.005 55.925 239.515 55.925C239.105 55.925 238.74 56.04 238.42 56.27C238.1 56.49 237.845 56.805 237.655 57.215C237.465 57.615 237.37 58.08 237.37 58.61C237.37 59.2 237.52 59.67 237.82 60.02C238.12 60.36 238.525 60.53 239.035 60.53ZM246.979 62.135C246.139 62.135 245.504 61.85 245.074 61.28C244.654 60.71 244.449 59.92 244.459 58.91L244.489 54.425H246.319L246.289 58.745C246.279 59.265 246.369 59.675 246.559 59.975C246.749 60.275 247.049 60.425 247.459 60.425C247.779 60.425 248.074 60.33 248.344 60.14C248.624 59.95 248.864 59.63 249.064 59.18C249.264 58.72 249.419 58.105 249.529 57.335C249.649 56.555 249.709 55.585 249.709 54.425H251.479V62H249.634L249.739 60.275C249.439 60.885 249.049 61.35 248.569 61.67C248.099 61.98 247.569 62.135 246.979 62.135ZM255.256 54.425V62H253.426V54.425H255.256ZM254.341 53.225C253.981 53.225 253.696 53.115 253.486 52.895C253.276 52.675 253.171 52.41 253.171 52.1C253.171 51.79 253.276 51.525 253.486 51.305C253.696 51.085 253.981 50.975 254.341 50.975C254.701 50.975 254.986 51.085 255.196 51.305C255.406 51.525 255.511 51.79 255.511 52.1C255.511 52.41 255.406 52.675 255.196 52.895C254.986 53.115 254.701 53.225 254.341 53.225ZM259.395 62.135C258.675 62.135 258.13 61.94 257.76 61.55C257.39 61.16 257.205 60.605 257.205 59.885V50.9H259.035V59.735C259.035 60.275 259.285 60.545 259.785 60.545C260.035 60.545 260.255 60.485 260.445 60.365L260.895 61.7C260.735 61.82 260.52 61.92 260.25 62C259.98 62.09 259.695 62.135 259.395 62.135ZM264.649 62.135C263.739 62.135 263.029 61.885 262.519 61.385C262.019 60.885 261.774 60.23 261.784 59.42L261.844 55.955H260.554V54.425H261.874L261.889 52.865H263.719L263.689 54.425H266.164V55.955H263.674L263.629 59.225C263.619 59.635 263.719 59.96 263.929 60.2C264.149 60.43 264.474 60.545 264.904 60.545C265.134 60.545 265.349 60.515 265.549 60.455C265.749 60.395 265.959 60.285 266.179 60.125L266.719 61.535C266.489 61.735 266.194 61.885 265.834 61.985C265.474 62.085 265.079 62.135 264.649 62.135ZM278.245 54.455V62H276.385L276.445 60.68C276.175 61.14 275.82 61.5 275.38 61.76C274.95 62.01 274.455 62.135 273.895 62.135C273.235 62.135 272.675 61.985 272.215 61.685C271.755 61.375 271.405 60.95 271.165 60.41C270.925 59.87 270.805 59.25 270.805 58.55C270.805 57.71 270.97 56.975 271.3 56.345C271.63 55.705 272.08 55.205 272.65 54.845C273.23 54.485 273.88 54.305 274.6 54.305C275.08 54.305 275.505 54.41 275.875 54.62C276.245 54.82 276.53 55.09 276.73 55.43L276.91 54.455H278.245ZM274.735 55.925C274.115 55.925 273.62 56.16 273.25 56.63C272.88 57.1 272.695 57.715 272.695 58.475C272.695 59.125 272.835 59.63 273.115 59.99C273.395 60.35 273.78 60.53 274.27 60.53C274.67 60.53 275.03 60.415 275.35 60.185C275.68 59.955 275.94 59.635 276.13 59.225C276.32 58.815 276.415 58.345 276.415 57.815C276.415 57.225 276.265 56.765 275.965 56.435C275.665 56.095 275.255 55.925 274.735 55.925ZM280.189 62V54.425H282.019L281.929 56.33C282.219 55.68 282.614 55.18 283.114 54.83C283.614 54.48 284.184 54.305 284.824 54.305C285.674 54.305 286.314 54.6 286.744 55.19C287.184 55.77 287.399 56.605 287.389 57.695L287.359 62H285.529L285.559 57.845C285.569 57.255 285.474 56.805 285.274 56.495C285.084 56.175 284.774 56.015 284.344 56.015C284.014 56.015 283.709 56.11 283.429 56.3C283.149 56.49 282.904 56.815 282.694 57.275C282.484 57.725 282.319 58.34 282.199 59.12C282.079 59.89 282.014 60.85 282.004 62H280.189ZM296.307 54.455V62H294.447L294.507 60.68C294.237 61.14 293.882 61.5 293.442 61.76C293.012 62.01 292.517 62.135 291.957 62.135C291.297 62.135 290.737 61.985 290.277 61.685C289.817 61.375 289.467 60.95 289.227 60.41C288.987 59.87 288.867 59.25 288.867 58.55C288.867 57.71 289.032 56.975 289.362 56.345C289.692 55.705 290.142 55.205 290.712 54.845C291.292 54.485 291.942 54.305 292.662 54.305C293.142 54.305 293.567 54.41 293.937 54.62C294.307 54.82 294.592 55.09 294.792 55.43L294.972 54.455H296.307ZM292.797 55.925C292.177 55.925 291.682 56.16 291.312 56.63C290.942 57.1 290.757 57.715 290.757 58.475C290.757 59.125 290.897 59.63 291.177 59.99C291.457 60.35 291.842 60.53 292.332 60.53C292.732 60.53 293.092 60.415 293.412 60.185C293.742 59.955 294.002 59.635 294.192 59.225C294.382 58.815 294.477 58.345 294.477 57.815C294.477 57.225 294.327 56.765 294.027 56.435C293.727 56.095 293.317 55.925 292.797 55.925ZM300.44 62.135C299.72 62.135 299.175 61.94 298.805 61.55C298.435 61.16 298.25 60.605 298.25 59.885V50.9H300.08V59.735C300.08 60.275 300.33 60.545 300.83 60.545C301.08 60.545 301.3 60.485 301.49 60.365L301.94 61.7C301.78 61.82 301.565 61.92 301.295 62C301.025 62.09 300.74 62.135 300.44 62.135ZM305.212 65.15C304.762 65.15 304.282 65.105 303.772 65.015C303.272 64.925 302.857 64.775 302.527 64.565L302.977 62.975C303.317 63.145 303.677 63.28 304.057 63.38C304.437 63.48 304.852 63.53 305.302 63.53C306.182 63.53 306.807 63.32 307.177 62.9C307.547 62.49 307.752 61.83 307.792 60.92L307.852 59.93C307.552 60.57 307.152 61.06 306.652 61.4C306.162 61.73 305.612 61.895 305.002 61.895C304.152 61.895 303.512 61.61 303.082 61.04C302.652 60.47 302.442 59.68 302.452 58.67L302.482 54.425H304.312L304.282 58.52C304.282 59.04 304.372 59.45 304.552 59.75C304.742 60.04 305.047 60.185 305.467 60.185C305.927 60.185 306.327 60.01 306.667 59.66C307.007 59.3 307.272 58.705 307.462 57.875C307.662 57.035 307.767 55.885 307.777 54.425H309.547V60.695C309.547 62.215 309.167 63.335 308.407 64.055C307.647 64.785 306.582 65.15 305.212 65.15ZM314.703 62.135C313.793 62.135 313.083 61.885 312.573 61.385C312.073 60.885 311.828 60.23 311.838 59.42L311.898 55.955H310.608V54.425H311.928L311.943 52.865H313.773L313.743 54.425H316.218V55.955H313.728L313.683 59.225C313.673 59.635 313.773 59.96 313.983 60.2C314.203 60.43 314.528 60.545 314.958 60.545C315.188 60.545 315.403 60.515 315.603 60.455C315.803 60.395 316.013 60.285 316.233 60.125L316.773 61.535C316.543 61.735 316.248 61.885 315.888 61.985C315.528 62.085 315.133 62.135 314.703 62.135ZM319.402 54.425V62H317.572V54.425H319.402ZM318.487 53.225C318.127 53.225 317.842 53.115 317.632 52.895C317.422 52.675 317.317 52.41 317.317 52.1C317.317 51.79 317.422 51.525 317.632 51.305C317.842 51.085 318.127 50.975 318.487 50.975C318.847 50.975 319.132 51.085 319.342 51.305C319.552 51.525 319.657 51.79 319.657 52.1C319.657 52.41 319.552 52.675 319.342 52.895C319.132 53.115 318.847 53.225 318.487 53.225ZM324.726 62.135C323.576 62.135 322.666 61.805 321.996 61.145C321.326 60.475 320.991 59.545 320.991 58.355C320.991 57.555 321.156 56.85 321.486 56.24C321.816 55.63 322.276 55.155 322.866 54.815C323.456 54.475 324.136 54.305 324.906 54.305C325.546 54.305 326.106 54.43 326.586 54.68C327.066 54.93 327.456 55.32 327.756 55.85L326.451 56.84C326.261 56.52 326.041 56.29 325.791 56.15C325.551 56.01 325.256 55.94 324.906 55.94C324.316 55.94 323.831 56.16 323.451 56.6C323.081 57.04 322.896 57.62 322.896 58.34C322.896 59.04 323.061 59.58 323.391 59.96C323.731 60.33 324.216 60.515 324.846 60.515C325.176 60.515 325.481 60.44 325.761 60.29C326.051 60.14 326.291 59.905 326.481 59.585L327.756 60.605C327.416 61.155 326.986 61.55 326.466 61.79C325.946 62.02 325.366 62.135 324.726 62.135ZM331.33 62.135C330.29 62.135 329.495 61.94 328.945 61.55C328.395 61.15 328.075 60.595 327.985 59.885L329.53 59.51C329.59 59.89 329.765 60.185 330.055 60.395C330.345 60.595 330.76 60.695 331.3 60.695C331.74 60.695 332.07 60.625 332.29 60.485C332.52 60.345 332.635 60.155 332.635 59.915C332.635 59.675 332.51 59.49 332.26 59.36C332.02 59.23 331.645 59.115 331.135 59.015C330.565 58.905 330.075 58.765 329.665 58.595C329.265 58.425 328.955 58.195 328.735 57.905C328.525 57.605 328.42 57.215 328.42 56.735C328.42 56.275 328.55 55.865 328.81 55.505C329.07 55.135 329.425 54.845 329.875 54.635C330.335 54.415 330.86 54.305 331.45 54.305C332.24 54.305 332.885 54.49 333.385 54.86C333.895 55.23 334.2 55.705 334.3 56.285L332.785 56.69C332.715 56.4 332.565 56.175 332.335 56.015C332.105 55.845 331.795 55.76 331.405 55.76C331.015 55.76 330.715 55.84 330.505 56C330.305 56.16 330.205 56.36 330.205 56.6C330.205 56.84 330.32 57.03 330.55 57.17C330.79 57.3 331.195 57.425 331.765 57.545C332.295 57.655 332.755 57.795 333.145 57.965C333.545 58.125 333.86 58.35 334.09 58.64C334.32 58.92 334.435 59.3 334.435 59.78C334.435 60.25 334.3 60.665 334.03 61.025C333.77 61.375 333.405 61.65 332.935 61.85C332.465 62.04 331.93 62.135 331.33 62.135ZM339.398 62V50.9H341.228L341.243 54.425L341.138 56.315C341.438 55.675 341.833 55.18 342.323 54.83C342.823 54.48 343.393 54.305 344.033 54.305C344.883 54.305 345.523 54.6 345.953 55.19C346.393 55.77 346.608 56.605 346.598 57.695L346.568 62H344.738L344.768 57.845C344.778 57.255 344.683 56.805 344.483 56.495C344.293 56.175 343.983 56.015 343.553 56.015C343.223 56.015 342.918 56.11 342.638 56.3C342.358 56.49 342.113 56.815 341.903 57.275C341.693 57.725 341.528 58.34 341.408 59.12C341.288 59.89 341.223 60.85 341.213 62H339.398ZM352.051 62.135C351.231 62.135 350.521 61.985 349.921 61.685C349.331 61.375 348.876 60.935 348.556 60.365C348.236 59.795 348.076 59.115 348.076 58.325C348.076 57.535 348.241 56.84 348.571 56.24C348.901 55.63 349.346 55.155 349.906 54.815C350.476 54.475 351.121 54.305 351.841 54.305C353.011 54.305 353.871 54.705 354.421 55.505C354.981 56.295 355.176 57.39 355.006 58.79H349.936C349.976 59.32 350.191 59.745 350.581 60.065C350.971 60.385 351.506 60.545 352.186 60.545C352.506 60.545 352.826 60.475 353.146 60.335C353.476 60.195 353.756 59.98 353.986 59.69L355.051 60.77C354.711 61.2 354.296 61.535 353.806 61.775C353.326 62.015 352.741 62.135 352.051 62.135ZM351.871 55.685C351.361 55.685 350.941 55.845 350.611 56.165C350.281 56.485 350.071 56.915 349.981 57.455H353.431C353.451 56.835 353.316 56.385 353.026 56.105C352.736 55.825 352.351 55.685 351.871 55.685ZM358.77 62.135C358.05 62.135 357.505 61.94 357.135 61.55C356.765 61.16 356.58 60.605 356.58 59.885V50.9H358.41V59.735C358.41 60.275 358.66 60.545 359.16 60.545C359.41 60.545 359.63 60.485 359.82 60.365L360.27 61.7C360.11 61.82 359.895 61.92 359.625 62C359.355 62.09 359.07 62.135 358.77 62.135ZM360.96 65V54.425H362.805L362.745 55.775C363.015 55.305 363.365 54.945 363.795 54.695C364.225 54.435 364.725 54.305 365.295 54.305C365.965 54.305 366.53 54.46 366.99 54.77C367.45 55.08 367.8 55.505 368.04 56.045C368.28 56.585 368.4 57.2 368.4 57.89C368.4 58.73 368.235 59.47 367.905 60.11C367.575 60.75 367.12 61.25 366.54 61.61C365.97 61.96 365.32 62.135 364.59 62.135C364.21 62.135 363.865 62.07 363.555 61.94C363.245 61.81 362.985 61.635 362.775 61.415L362.79 62V65H360.96ZM364.455 60.53C365.085 60.53 365.585 60.29 365.955 59.81C366.325 59.33 366.51 58.71 366.51 57.95C366.51 57.31 366.37 56.815 366.09 56.465C365.81 56.105 365.425 55.925 364.935 55.925C364.525 55.925 364.16 56.04 363.84 56.27C363.52 56.49 363.265 56.805 363.075 57.215C362.885 57.615 362.79 58.08 362.79 58.61C362.79 59.2 362.94 59.67 363.24 60.02C363.54 60.36 363.945 60.53 364.455 60.53ZM372.639 62.135C371.599 62.135 370.804 61.94 370.254 61.55C369.704 61.15 369.384 60.595 369.294 59.885L370.839 59.51C370.899 59.89 371.074 60.185 371.364 60.395C371.654 60.595 372.069 60.695 372.609 60.695C373.049 60.695 373.379 60.625 373.599 60.485C373.829 60.345 373.944 60.155 373.944 59.915C373.944 59.675 373.819 59.49 373.569 59.36C373.329 59.23 372.954 59.115 372.444 59.015C371.874 58.905 371.384 58.765 370.974 58.595C370.574 58.425 370.264 58.195 370.044 57.905C369.834 57.605 369.729 57.215 369.729 56.735C369.729 56.275 369.859 55.865 370.119 55.505C370.379 55.135 370.734 54.845 371.184 54.635C371.644 54.415 372.169 54.305 372.759 54.305C373.549 54.305 374.194 54.49 374.694 54.86C375.204 55.23 375.509 55.705 375.609 56.285L374.094 56.69C374.024 56.4 373.874 56.175 373.644 56.015C373.414 55.845 373.104 55.76 372.714 55.76C372.324 55.76 372.024 55.84 371.814 56C371.614 56.16 371.514 56.36 371.514 56.6C371.514 56.84 371.629 57.03 371.859 57.17C372.099 57.3 372.504 57.425 373.074 57.545C373.604 57.655 374.064 57.795 374.454 57.965C374.854 58.125 375.169 58.35 375.399 58.64C375.629 58.92 375.744 59.3 375.744 59.78C375.744 60.25 375.609 60.665 375.339 61.025C375.079 61.375 374.714 61.65 374.244 61.85C373.774 62.04 373.239 62.135 372.639 62.135ZM383.361 65.15C382.911 65.15 382.431 65.105 381.921 65.015C381.421 64.925 381.006 64.775 380.676 64.565L381.126 62.975C381.466 63.145 381.826 63.28 382.206 63.38C382.586 63.48 383.001 63.53 383.451 63.53C384.331 63.53 384.956 63.32 385.326 62.9C385.696 62.49 385.901 61.83 385.941 60.92L386.001 59.93C385.701 60.57 385.301 61.06 384.801 61.4C384.311 61.73 383.761 61.895 383.151 61.895C382.301 61.895 381.661 61.61 381.231 61.04C380.801 60.47 380.591 59.68 380.601 58.67L380.631 54.425H382.461L382.431 58.52C382.431 59.04 382.521 59.45 382.701 59.75C382.891 60.04 383.196 60.185 383.616 60.185C384.076 60.185 384.476 60.01 384.816 59.66C385.156 59.3 385.421 58.705 385.611 57.875C385.811 57.035 385.916 55.885 385.926 54.425H387.696V60.695C387.696 62.215 387.316 63.335 386.556 64.055C385.796 64.785 384.731 65.15 383.361 65.15ZM393.197 54.305C394.327 54.305 395.212 54.645 395.852 55.325C396.502 55.995 396.827 56.905 396.827 58.055C396.827 58.835 396.662 59.535 396.332 60.155C396.012 60.765 395.557 61.25 394.967 61.61C394.377 61.96 393.692 62.135 392.912 62.135C391.782 62.135 390.892 61.8 390.242 61.13C389.602 60.46 389.282 59.545 389.282 58.385C389.282 57.605 389.442 56.91 389.762 56.3C390.092 55.68 390.547 55.195 391.127 54.845C391.717 54.485 392.407 54.305 393.197 54.305ZM392.972 60.53C393.562 60.53 394.037 60.305 394.397 59.855C394.757 59.405 394.937 58.805 394.937 58.055C394.937 57.375 394.777 56.85 394.457 56.48C394.147 56.11 393.717 55.925 393.167 55.925C392.557 55.925 392.072 56.15 391.712 56.6C391.352 57.05 391.172 57.645 391.172 58.385C391.172 59.065 391.327 59.595 391.637 59.975C391.957 60.345 392.402 60.53 392.972 60.53ZM400.831 62.135C399.991 62.135 399.356 61.85 398.926 61.28C398.506 60.71 398.301 59.92 398.311 58.91L398.341 54.425H400.171L400.141 58.745C400.131 59.265 400.221 59.675 400.411 59.975C400.601 60.275 400.901 60.425 401.311 60.425C401.631 60.425 401.926 60.33 402.196 60.14C402.476 59.95 402.716 59.63 402.916 59.18C403.116 58.72 403.271 58.105 403.381 57.335C403.501 56.555 403.561 55.585 403.561 54.425H405.331V62H403.486L403.591 60.275C403.291 60.885 402.901 61.35 402.421 61.67C401.951 61.98 401.421 62.135 400.831 62.135ZM0.975 87V79.425H2.805L2.715 81.285C3.025 80.595 3.425 80.095 3.915 79.785C4.415 79.465 4.95 79.305 5.52 79.305C6.07 79.305 6.555 79.455 6.975 79.755C7.395 80.055 7.695 80.525 7.875 81.165C8.195 80.535 8.615 80.07 9.135 79.77C9.665 79.46 10.21 79.305 10.77 79.305C11.61 79.305 12.245 79.6 12.675 80.19C13.115 80.77 13.33 81.605 13.32 82.695L13.29 87H11.46L11.49 82.755C11.49 82.205 11.39 81.78 11.19 81.48C10.99 81.17 10.68 81.015 10.26 81.015C9.97 81.015 9.69 81.11 9.42 81.3C9.16 81.48 8.925 81.795 8.715 82.245C8.515 82.695 8.355 83.31 8.235 84.09C8.115 84.86 8.05 85.83 8.04 87H6.225V82.755C6.225 82.205 6.13 81.78 5.94 81.48C5.75 81.17 5.445 81.015 5.025 81.015C4.735 81.015 4.455 81.11 4.185 81.3C3.925 81.48 3.69 81.795 3.48 82.245C3.28 82.695 3.115 83.31 2.985 84.09C2.865 84.86 2.8 85.83 2.79 87H0.975ZM22.2493 79.455V87H20.3893L20.4493 85.68C20.1793 86.14 19.8243 86.5 19.3843 86.76C18.9543 87.01 18.4593 87.135 17.8993 87.135C17.2393 87.135 16.6793 86.985 16.2193 86.685C15.7593 86.375 15.4093 85.95 15.1693 85.41C14.9293 84.87 14.8093 84.25 14.8093 83.55C14.8093 82.71 14.9743 81.975 15.3043 81.345C15.6343 80.705 16.0843 80.205 16.6543 79.845C17.2343 79.485 17.8843 79.305 18.6043 79.305C19.0843 79.305 19.5093 79.41 19.8793 79.62C20.2493 79.82 20.5343 80.09 20.7343 80.43L20.9143 79.455H22.2493ZM18.7393 80.925C18.1193 80.925 17.6243 81.16 17.2543 81.63C16.8843 82.1 16.6993 82.715 16.6993 83.475C16.6993 84.125 16.8393 84.63 17.1193 84.99C17.3993 85.35 17.7843 85.53 18.2743 85.53C18.6743 85.53 19.0343 85.415 19.3543 85.185C19.6843 84.955 19.9443 84.635 20.1343 84.225C20.3243 83.815 20.4193 83.345 20.4193 82.815C20.4193 82.225 20.2693 81.765 19.9693 81.435C19.6693 81.095 19.2593 80.925 18.7393 80.925ZM24.1928 87V79.425H26.0228L25.9328 81.33C26.2228 80.68 26.6178 80.18 27.1178 79.83C27.6178 79.48 28.1878 79.305 28.8278 79.305C29.6778 79.305 30.3178 79.6 30.7478 80.19C31.1878 80.77 31.4028 81.605 31.3928 82.695L31.3628 87H29.5328L29.5628 82.845C29.5728 82.255 29.4778 81.805 29.2778 81.495C29.0878 81.175 28.7778 81.015 28.3478 81.015C28.0178 81.015 27.7128 81.11 27.4328 81.3C27.1528 81.49 26.9078 81.815 26.6978 82.275C26.4878 82.725 26.3228 83.34 26.2028 84.12C26.0828 84.89 26.0178 85.85 26.0078 87H24.1928ZM40.3109 79.455V87H38.4509L38.5109 85.68C38.2409 86.14 37.8859 86.5 37.4459 86.76C37.0159 87.01 36.5209 87.135 35.9609 87.135C35.3009 87.135 34.7409 86.985 34.2809 86.685C33.8209 86.375 33.4709 85.95 33.2309 85.41C32.9909 84.87 32.8709 84.25 32.8709 83.55C32.8709 82.71 33.0359 81.975 33.3659 81.345C33.6959 80.705 34.1459 80.205 34.7159 79.845C35.2959 79.485 35.9459 79.305 36.6659 79.305C37.1459 79.305 37.5709 79.41 37.9409 79.62C38.3109 79.82 38.5959 80.09 38.7959 80.43L38.9759 79.455H40.3109ZM36.8009 80.925C36.1809 80.925 35.6859 81.16 35.3159 81.63C34.9459 82.1 34.7609 82.715 34.7609 83.475C34.7609 84.125 34.9009 84.63 35.1809 84.99C35.4609 85.35 35.8459 85.53 36.3359 85.53C36.7359 85.53 37.0959 85.415 37.4159 85.185C37.7459 84.955 38.0059 84.635 38.1959 84.225C38.3859 83.815 38.4809 83.345 38.4809 82.815C38.4809 82.225 38.3309 81.765 38.0309 81.435C37.7309 81.095 37.3209 80.925 36.8009 80.925ZM44.9843 90.15C44.5443 90.15 44.0693 90.105 43.5593 90.015C43.0593 89.925 42.6443 89.775 42.3143 89.565L42.7643 87.975C43.0943 88.145 43.4493 88.28 43.8293 88.38C44.2193 88.48 44.6343 88.53 45.0743 88.53C45.9643 88.53 46.5943 88.32 46.9643 87.9C47.3343 87.48 47.5393 86.82 47.5793 85.92L47.6093 85.455C47.3293 85.925 46.9743 86.285 46.5443 86.535C46.1243 86.775 45.6293 86.895 45.0593 86.895C44.3793 86.895 43.7993 86.75 43.3193 86.46C42.8493 86.17 42.4943 85.765 42.2543 85.245C42.0143 84.725 41.8943 84.13 41.8943 83.46C41.8943 82.65 42.0543 81.935 42.3743 81.315C42.7043 80.685 43.1543 80.195 43.7243 79.845C44.3043 79.485 44.9693 79.305 45.7193 79.305C46.2193 79.305 46.6543 79.41 47.0243 79.62C47.3943 79.82 47.6793 80.09 47.8793 80.43L48.0593 79.455H49.3943V85.695C49.3943 87.185 49.0043 88.3 48.2243 89.04C47.4443 89.78 46.3643 90.15 44.9843 90.15ZM45.8543 80.925C45.2243 80.925 44.7193 81.15 44.3393 81.6C43.9693 82.05 43.7843 82.63 43.7843 83.34C43.7843 83.96 43.9293 84.44 44.2193 84.78C44.5093 85.12 44.9043 85.29 45.4043 85.29C45.8143 85.29 46.1793 85.18 46.4993 84.96C46.8293 84.73 47.0893 84.42 47.2793 84.03C47.4693 83.64 47.5643 83.2 47.5643 82.71C47.5643 82.15 47.4093 81.715 47.0993 81.405C46.7893 81.085 46.3743 80.925 45.8543 80.925ZM54.966 87.135C54.146 87.135 53.436 86.985 52.836 86.685C52.246 86.375 51.791 85.935 51.471 85.365C51.151 84.795 50.991 84.115 50.991 83.325C50.991 82.535 51.156 81.84 51.486 81.24C51.816 80.63 52.261 80.155 52.821 79.815C53.391 79.475 54.036 79.305 54.756 79.305C55.926 79.305 56.786 79.705 57.336 80.505C57.896 81.295 58.091 82.39 57.921 83.79H52.851C52.891 84.32 53.106 84.745 53.496 85.065C53.886 85.385 54.421 85.545 55.101 85.545C55.421 85.545 55.741 85.475 56.061 85.335C56.391 85.195 56.671 84.98 56.901 84.69L57.966 85.77C57.626 86.2 57.211 86.535 56.721 86.775C56.241 87.015 55.656 87.135 54.966 87.135ZM54.786 80.685C54.276 80.685 53.856 80.845 53.526 81.165C53.196 81.485 52.986 81.915 52.896 82.455H56.346C56.366 81.835 56.231 81.385 55.941 81.105C55.651 80.825 55.266 80.685 54.786 80.685ZM65.798 90.15C65.348 90.15 64.868 90.105 64.358 90.015C63.858 89.925 63.443 89.775 63.113 89.565L63.563 87.975C63.903 88.145 64.263 88.28 64.643 88.38C65.023 88.48 65.438 88.53 65.888 88.53C66.768 88.53 67.393 88.32 67.763 87.9C68.133 87.49 68.338 86.83 68.378 85.92L68.438 84.93C68.138 85.57 67.738 86.06 67.238 86.4C66.748 86.73 66.198 86.895 65.588 86.895C64.738 86.895 64.098 86.61 63.668 86.04C63.238 85.47 63.028 84.68 63.038 83.67L63.068 79.425H64.898L64.868 83.52C64.868 84.04 64.958 84.45 65.138 84.75C65.328 85.04 65.633 85.185 66.053 85.185C66.513 85.185 66.913 85.01 67.253 84.66C67.593 84.3 67.858 83.705 68.048 82.875C68.248 82.035 68.353 80.885 68.363 79.425H70.133V85.695C70.133 87.215 69.753 88.335 68.993 89.055C68.233 89.785 67.168 90.15 65.798 90.15ZM75.6335 79.305C76.7635 79.305 77.6485 79.645 78.2885 80.325C78.9385 80.995 79.2635 81.905 79.2635 83.055C79.2635 83.835 79.0985 84.535 78.7685 85.155C78.4485 85.765 77.9935 86.25 77.4035 86.61C76.8135 86.96 76.1285 87.135 75.3485 87.135C74.2185 87.135 73.3285 86.8 72.6785 86.13C72.0385 85.46 71.7185 84.545 71.7185 83.385C71.7185 82.605 71.8785 81.91 72.1985 81.3C72.5285 80.68 72.9835 80.195 73.5635 79.845C74.1535 79.485 74.8435 79.305 75.6335 79.305ZM75.4085 85.53C75.9985 85.53 76.4735 85.305 76.8335 84.855C77.1935 84.405 77.3735 83.805 77.3735 83.055C77.3735 82.375 77.2135 81.85 76.8935 81.48C76.5835 81.11 76.1535 80.925 75.6035 80.925C74.9935 80.925 74.5085 81.15 74.1485 81.6C73.7885 82.05 73.6085 82.645 73.6085 83.385C73.6085 84.065 73.7635 84.595 74.0735 84.975C74.3935 85.345 74.8385 85.53 75.4085 85.53ZM83.2679 87.135C82.4279 87.135 81.7929 86.85 81.3629 86.28C80.9429 85.71 80.7379 84.92 80.7479 83.91L80.7779 79.425H82.6079L82.5779 83.745C82.5679 84.265 82.6579 84.675 82.8479 84.975C83.0379 85.275 83.3379 85.425 83.7479 85.425C84.0679 85.425 84.3629 85.33 84.6329 85.14C84.9129 84.95 85.1529 84.63 85.3529 84.18C85.5529 83.72 85.7079 83.105 85.8179 82.335C85.9379 81.555 85.9979 80.585 85.9979 79.425H87.7679V87H85.9229L86.0279 85.275C85.7279 85.885 85.3379 86.35 84.8579 86.67C84.3879 86.98 83.8579 87.135 83.2679 87.135ZM94.5752 81.195C94.3752 81.125 94.1202 81.09 93.8102 81.09C93.2702 81.09 92.8352 81.29 92.5052 81.69C92.1752 82.08 91.9302 82.71 91.7702 83.58C91.6202 84.44 91.5452 85.58 91.5452 87H89.7302V82.11L89.7152 79.425H91.5452L91.4552 81.54C91.7152 80.73 92.0752 80.155 92.5352 79.815C93.0052 79.475 93.5052 79.305 94.0352 79.305C94.1952 79.305 94.3452 79.315 94.4852 79.335C94.6252 79.355 94.7552 79.385 94.8752 79.425L94.5752 81.195ZM106.566 75.9V87H104.706L104.766 85.68C104.496 86.15 104.146 86.51 103.716 86.76C103.286 87.01 102.786 87.135 102.216 87.135C101.556 87.135 100.996 86.985 100.536 86.685C100.076 86.375 99.7257 85.95 99.4857 85.41C99.2457 84.87 99.1257 84.25 99.1257 83.55C99.1257 82.71 99.2907 81.975 99.6207 81.345C99.9507 80.705 100.401 80.205 100.971 79.845C101.551 79.485 102.201 79.305 102.921 79.305C103.301 79.305 103.646 79.37 103.956 79.5C104.276 79.63 104.541 79.81 104.751 80.04L104.736 79.425V75.9H106.566ZM103.056 80.925C102.436 80.925 101.941 81.16 101.571 81.63C101.201 82.1 101.016 82.715 101.016 83.475C101.016 84.125 101.156 84.63 101.436 84.99C101.716 85.35 102.101 85.53 102.591 85.53C102.991 85.53 103.351 85.415 103.671 85.185C104.001 84.955 104.261 84.635 104.451 84.225C104.641 83.815 104.736 83.345 104.736 82.815C104.736 82.225 104.586 81.765 104.286 81.435C103.986 81.095 103.576 80.925 103.056 80.925ZM110.339 79.425V87H108.509V79.425H110.339ZM109.424 78.225C109.064 78.225 108.779 78.115 108.569 77.895C108.359 77.675 108.254 77.41 108.254 77.1C108.254 76.79 108.359 76.525 108.569 76.305C108.779 76.085 109.064 75.975 109.424 75.975C109.784 75.975 110.069 76.085 110.279 76.305C110.489 76.525 110.594 76.79 110.594 77.1C110.594 77.41 110.489 77.675 110.279 77.895C110.069 78.115 109.784 78.225 109.424 78.225ZM114.943 87.135C113.903 87.135 113.108 86.94 112.558 86.55C112.008 86.15 111.688 85.595 111.598 84.885L113.143 84.51C113.203 84.89 113.378 85.185 113.668 85.395C113.958 85.595 114.373 85.695 114.913 85.695C115.353 85.695 115.683 85.625 115.903 85.485C116.133 85.345 116.248 85.155 116.248 84.915C116.248 84.675 116.123 84.49 115.873 84.36C115.633 84.23 115.258 84.115 114.748 84.015C114.178 83.905 113.688 83.765 113.278 83.595C112.878 83.425 112.568 83.195 112.348 82.905C112.138 82.605 112.033 82.215 112.033 81.735C112.033 81.275 112.163 80.865 112.423 80.505C112.683 80.135 113.038 79.845 113.488 79.635C113.948 79.415 114.473 79.305 115.063 79.305C115.853 79.305 116.498 79.49 116.998 79.86C117.508 80.23 117.813 80.705 117.913 81.285L116.398 81.69C116.328 81.4 116.178 81.175 115.948 81.015C115.718 80.845 115.408 80.76 115.018 80.76C114.628 80.76 114.328 80.84 114.118 81C113.918 81.16 113.818 81.36 113.818 81.6C113.818 81.84 113.933 82.03 114.163 82.17C114.403 82.3 114.808 82.425 115.378 82.545C115.908 82.655 116.368 82.795 116.758 82.965C117.158 83.125 117.473 83.35 117.703 83.64C117.933 83.92 118.048 84.3 118.048 84.78C118.048 85.25 117.913 85.665 117.643 86.025C117.383 86.375 117.018 86.65 116.548 86.85C116.078 87.04 115.543 87.135 114.943 87.135ZM122.427 87.135C121.517 87.135 120.807 86.885 120.297 86.385C119.797 85.885 119.552 85.23 119.562 84.42L119.622 80.955H118.332V79.425H119.652L119.667 77.865H121.497L121.467 79.425H123.942V80.955H121.452L121.407 84.225C121.397 84.635 121.497 84.96 121.707 85.2C121.927 85.43 122.252 85.545 122.682 85.545C122.912 85.545 123.127 85.515 123.327 85.455C123.527 85.395 123.737 85.285 123.957 85.125L124.497 86.535C124.267 86.735 123.972 86.885 123.612 86.985C123.252 87.085 122.857 87.135 122.427 87.135ZM130.156 81.195C129.956 81.125 129.701 81.09 129.391 81.09C128.851 81.09 128.416 81.29 128.086 81.69C127.756 82.08 127.511 82.71 127.351 83.58C127.201 84.44 127.126 85.58 127.126 87H125.311V82.11L125.296 79.425H127.126L127.036 81.54C127.296 80.73 127.656 80.155 128.116 79.815C128.586 79.475 129.086 79.305 129.616 79.305C129.776 79.305 129.926 79.315 130.066 79.335C130.206 79.355 130.336 79.385 130.456 79.425L130.156 81.195ZM133.249 79.425V87H131.419V79.425H133.249ZM132.334 78.225C131.974 78.225 131.689 78.115 131.479 77.895C131.269 77.675 131.164 77.41 131.164 77.1C131.164 76.79 131.269 76.525 131.479 76.305C131.689 76.085 131.974 75.975 132.334 75.975C132.694 75.975 132.979 76.085 133.189 76.305C133.399 76.525 133.504 76.79 133.504 77.1C133.504 77.41 133.399 77.675 133.189 77.895C132.979 78.115 132.694 78.225 132.334 78.225ZM135.199 87V75.9H137.029V79.425L136.969 80.805C137.239 80.325 137.589 79.955 138.019 79.695C138.459 79.435 138.964 79.305 139.534 79.305C140.204 79.305 140.769 79.46 141.229 79.77C141.689 80.08 142.039 80.505 142.279 81.045C142.519 81.585 142.639 82.2 142.639 82.89C142.639 83.73 142.474 84.47 142.144 85.11C141.814 85.75 141.359 86.25 140.779 86.61C140.209 86.96 139.564 87.135 138.844 87.135C138.354 87.135 137.924 87.035 137.554 86.835C137.184 86.625 136.904 86.35 136.714 86.01L136.534 87H135.199ZM138.694 85.53C139.324 85.53 139.824 85.29 140.194 84.81C140.564 84.33 140.749 83.71 140.749 82.95C140.749 82.31 140.609 81.815 140.329 81.465C140.049 81.105 139.664 80.925 139.174 80.925C138.764 80.925 138.399 81.04 138.079 81.27C137.759 81.49 137.504 81.805 137.314 82.215C137.124 82.615 137.029 83.08 137.029 83.61C137.029 84.2 137.179 84.67 137.479 85.02C137.779 85.36 138.184 85.53 138.694 85.53ZM146.637 87.135C145.797 87.135 145.162 86.85 144.732 86.28C144.312 85.71 144.107 84.92 144.117 83.91L144.147 79.425H145.977L145.947 83.745C145.937 84.265 146.027 84.675 146.217 84.975C146.407 85.275 146.707 85.425 147.117 85.425C147.437 85.425 147.732 85.33 148.002 85.14C148.282 84.95 148.522 84.63 148.722 84.18C148.922 83.72 149.077 83.105 149.187 82.335C149.307 81.555 149.367 80.585 149.367 79.425H151.137V87H149.292L149.397 85.275C149.097 85.885 148.707 86.35 148.227 86.67C147.757 86.98 147.227 87.135 146.637 87.135ZM156.294 87.135C155.384 87.135 154.674 86.885 154.164 86.385C153.664 85.885 153.419 85.23 153.429 84.42L153.489 80.955H152.199V79.425H153.519L153.534 77.865H155.364L155.334 79.425H157.809V80.955H155.319L155.274 84.225C155.264 84.635 155.364 84.96 155.574 85.2C155.794 85.43 156.119 85.545 156.549 85.545C156.779 85.545 156.994 85.515 157.194 85.455C157.394 85.395 157.604 85.285 157.824 85.125L158.364 86.535C158.134 86.735 157.839 86.885 157.479 86.985C157.119 87.085 156.724 87.135 156.294 87.135ZM162.632 87.135C161.812 87.135 161.102 86.985 160.502 86.685C159.912 86.375 159.457 85.935 159.137 85.365C158.817 84.795 158.657 84.115 158.657 83.325C158.657 82.535 158.822 81.84 159.152 81.24C159.482 80.63 159.927 80.155 160.487 79.815C161.057 79.475 161.702 79.305 162.422 79.305C163.592 79.305 164.452 79.705 165.002 80.505C165.562 81.295 165.757 82.39 165.587 83.79H160.517C160.557 84.32 160.772 84.745 161.162 85.065C161.552 85.385 162.087 85.545 162.767 85.545C163.087 85.545 163.407 85.475 163.727 85.335C164.057 85.195 164.337 84.98 164.567 84.69L165.632 85.77C165.292 86.2 164.877 86.535 164.387 86.775C163.907 87.015 163.322 87.135 162.632 87.135ZM162.452 80.685C161.942 80.685 161.522 80.845 161.192 81.165C160.862 81.485 160.652 81.915 160.562 82.455H164.012C164.032 81.835 163.897 81.385 163.607 81.105C163.317 80.825 162.932 80.685 162.452 80.685ZM174.242 75.9V87H172.382L172.442 85.68C172.172 86.15 171.822 86.51 171.392 86.76C170.962 87.01 170.462 87.135 169.892 87.135C169.232 87.135 168.672 86.985 168.212 86.685C167.752 86.375 167.402 85.95 167.162 85.41C166.922 84.87 166.802 84.25 166.802 83.55C166.802 82.71 166.967 81.975 167.297 81.345C167.627 80.705 168.077 80.205 168.647 79.845C169.227 79.485 169.877 79.305 170.597 79.305C170.977 79.305 171.322 79.37 171.632 79.5C171.952 79.63 172.217 79.81 172.427 80.04L172.412 79.425V75.9H174.242ZM170.732 80.925C170.112 80.925 169.617 81.16 169.247 81.63C168.877 82.1 168.692 82.715 168.692 83.475C168.692 84.125 168.832 84.63 169.112 84.99C169.392 85.35 169.777 85.53 170.267 85.53C170.667 85.53 171.027 85.415 171.347 85.185C171.677 84.955 171.937 84.635 172.127 84.225C172.317 83.815 172.412 83.345 172.412 82.815C172.412 82.225 172.262 81.765 171.962 81.435C171.662 81.095 171.252 80.925 170.732 80.925ZM183.042 87.135C182.132 87.135 181.422 86.885 180.912 86.385C180.412 85.885 180.167 85.23 180.177 84.42L180.237 80.955H178.947V79.425H180.267L180.282 77.865H182.112L182.082 79.425H184.557V80.955H182.067L182.022 84.225C182.012 84.635 182.112 84.96 182.322 85.2C182.542 85.43 182.867 85.545 183.297 85.545C183.527 85.545 183.742 85.515 183.942 85.455C184.142 85.395 184.352 85.285 184.572 85.125L185.112 86.535C184.882 86.735 184.587 86.885 184.227 86.985C183.867 87.085 183.472 87.135 183.042 87.135ZM189.38 87.135C188.56 87.135 187.85 86.985 187.25 86.685C186.66 86.375 186.205 85.935 185.885 85.365C185.565 84.795 185.405 84.115 185.405 83.325C185.405 82.535 185.57 81.84 185.9 81.24C186.23 80.63 186.675 80.155 187.235 79.815C187.805 79.475 188.45 79.305 189.17 79.305C190.34 79.305 191.2 79.705 191.75 80.505C192.31 81.295 192.505 82.39 192.335 83.79H187.265C187.305 84.32 187.52 84.745 187.91 85.065C188.3 85.385 188.835 85.545 189.515 85.545C189.835 85.545 190.155 85.475 190.475 85.335C190.805 85.195 191.085 84.98 191.315 84.69L192.38 85.77C192.04 86.2 191.625 86.535 191.135 86.775C190.655 87.015 190.07 87.135 189.38 87.135ZM189.2 80.685C188.69 80.685 188.27 80.845 187.94 81.165C187.61 81.485 187.4 81.915 187.31 82.455H190.76C190.78 81.835 190.645 81.385 190.355 81.105C190.065 80.825 189.68 80.685 189.2 80.685ZM200.99 79.455V87H199.13L199.19 85.68C198.92 86.14 198.565 86.5 198.125 86.76C197.695 87.01 197.2 87.135 196.64 87.135C195.98 87.135 195.42 86.985 194.96 86.685C194.5 86.375 194.15 85.95 193.91 85.41C193.67 84.87 193.55 84.25 193.55 83.55C193.55 82.71 193.715 81.975 194.045 81.345C194.375 80.705 194.825 80.205 195.395 79.845C195.975 79.485 196.625 79.305 197.345 79.305C197.825 79.305 198.25 79.41 198.62 79.62C198.99 79.82 199.275 80.09 199.475 80.43L199.655 79.455H200.99ZM197.48 80.925C196.86 80.925 196.365 81.16 195.995 81.63C195.625 82.1 195.44 82.715 195.44 83.475C195.44 84.125 195.58 84.63 195.86 84.99C196.14 85.35 196.525 85.53 197.015 85.53C197.415 85.53 197.775 85.415 198.095 85.185C198.425 84.955 198.685 84.635 198.875 84.225C199.065 83.815 199.16 83.345 199.16 82.815C199.16 82.225 199.01 81.765 198.71 81.435C198.41 81.095 198 80.925 197.48 80.925ZM202.933 87V79.425H204.763L204.673 81.285C204.983 80.595 205.383 80.095 205.873 79.785C206.373 79.465 206.908 79.305 207.478 79.305C208.028 79.305 208.513 79.455 208.933 79.755C209.353 80.055 209.653 80.525 209.833 81.165C210.153 80.535 210.573 80.07 211.093 79.77C211.623 79.46 212.168 79.305 212.728 79.305C213.568 79.305 214.203 79.6 214.633 80.19C215.073 80.77 215.288 81.605 215.278 82.695L215.248 87H213.418L213.448 82.755C213.448 82.205 213.348 81.78 213.148 81.48C212.948 81.17 212.638 81.015 212.218 81.015C211.928 81.015 211.648 81.11 211.378 81.3C211.118 81.48 210.883 81.795 210.673 82.245C210.473 82.695 210.313 83.31 210.193 84.09C210.073 84.86 210.008 85.83 209.998 87H208.183V82.755C208.183 82.205 208.088 81.78 207.898 81.48C207.708 81.17 207.403 81.015 206.983 81.015C206.693 81.015 206.413 81.11 206.143 81.3C205.883 81.48 205.648 81.795 205.438 82.245C205.238 82.695 205.073 83.31 204.943 84.09C204.823 84.86 204.758 85.83 204.748 87H202.933ZM219.782 87.135C218.742 87.135 217.947 86.94 217.397 86.55C216.847 86.15 216.527 85.595 216.437 84.885L217.982 84.51C218.042 84.89 218.217 85.185 218.507 85.395C218.797 85.595 219.212 85.695 219.752 85.695C220.192 85.695 220.522 85.625 220.742 85.485C220.972 85.345 221.087 85.155 221.087 84.915C221.087 84.675 220.962 84.49 220.712 84.36C220.472 84.23 220.097 84.115 219.587 84.015C219.017 83.905 218.527 83.765 218.117 83.595C217.717 83.425 217.407 83.195 217.187 82.905C216.977 82.605 216.872 82.215 216.872 81.735C216.872 81.275 217.002 80.865 217.262 80.505C217.522 80.135 217.877 79.845 218.327 79.635C218.787 79.415 219.312 79.305 219.902 79.305C220.692 79.305 221.337 79.49 221.837 79.86C222.347 80.23 222.652 80.705 222.752 81.285L221.237 81.69C221.167 81.4 221.017 81.175 220.787 81.015C220.557 80.845 220.247 80.76 219.857 80.76C219.467 80.76 219.167 80.84 218.957 81C218.757 81.16 218.657 81.36 218.657 81.6C218.657 81.84 218.772 82.03 219.002 82.17C219.242 82.3 219.647 82.425 220.217 82.545C220.747 82.655 221.207 82.795 221.597 82.965C221.997 83.125 222.312 83.35 222.542 83.64C222.772 83.92 222.887 84.3 222.887 84.78C222.887 85.25 222.752 85.665 222.482 86.025C222.222 86.375 221.857 86.65 221.387 86.85C220.917 87.04 220.382 87.135 219.782 87.135ZM225.013 87.135C224.623 87.135 224.313 87.015 224.083 86.775C223.853 86.535 223.738 86.24 223.738 85.89C223.738 85.54 223.853 85.245 224.083 85.005C224.313 84.765 224.623 84.645 225.013 84.645C225.403 84.645 225.713 84.765 225.943 85.005C226.173 85.245 226.288 85.54 226.288 85.89C226.288 86.24 226.173 86.535 225.943 86.775C225.713 87.015 225.403 87.135 225.013 87.135Z" fill="white"/>
<path d="M9.954 10.758H4.086V13.296H9.576V15.834H4.086V18.462H10.134L9.954 21H1.206V8.22H9.954V10.758ZM11.4858 21V11.838H14.2218L14.0958 13.8C14.4678 13.128 14.9418 12.612 15.5178 12.252C16.1058 11.88 16.7598 11.694 17.4798 11.694C18.5718 11.694 19.3878 12.066 19.9278 12.81C20.4678 13.542 20.7318 14.598 20.7198 15.978L20.6838 21H17.9298L17.9658 16.176C17.9778 15.552 17.8818 15.078 17.6778 14.754C17.4858 14.418 17.1738 14.25 16.7418 14.25C16.3818 14.25 16.0518 14.358 15.7518 14.574C15.4518 14.778 15.1878 15.132 14.9598 15.636C14.7438 16.14 14.5698 16.83 14.4378 17.706C14.3058 18.582 14.2338 19.68 14.2218 21H11.4858ZM22.7007 21V7.68H25.4547L25.4727 11.838L25.3287 13.764C25.7007 13.104 26.1747 12.594 26.7507 12.234C27.3387 11.874 27.9867 11.694 28.6947 11.694C29.7867 11.694 30.6027 12.066 31.1427 12.81C31.6827 13.542 31.9467 14.598 31.9347 15.978L31.8987 21H29.1447L29.1807 16.176C29.1927 15.552 29.0967 15.078 28.8927 14.754C28.7007 14.418 28.3887 14.25 27.9567 14.25C27.5967 14.25 27.2667 14.358 26.9667 14.574C26.6667 14.778 26.4027 15.132 26.1747 15.636C25.9587 16.14 25.7847 16.83 25.6527 17.706C25.5207 18.582 25.4487 19.68 25.4367 21H22.7007ZM42.9155 11.874V21H40.1435L40.2335 19.632C39.5735 20.664 38.5955 21.18 37.2995 21.18C36.4835 21.18 35.7875 20.994 35.2115 20.622C34.6355 20.25 34.1975 19.734 33.8975 19.074C33.5975 18.414 33.4475 17.658 33.4475 16.806C33.4475 15.786 33.6575 14.892 34.0775 14.124C34.4975 13.356 35.0615 12.762 35.7695 12.342C36.4775 11.91 37.2695 11.694 38.1455 11.694C38.7215 11.694 39.2315 11.814 39.6755 12.054C40.1195 12.282 40.4615 12.588 40.7015 12.972L40.9355 11.874H42.9155ZM38.4155 14.088C37.7555 14.088 37.2335 14.334 36.8495 14.826C36.4775 15.318 36.2915 15.948 36.2915 16.716C36.2915 17.376 36.4355 17.886 36.7235 18.246C37.0235 18.606 37.4255 18.786 37.9295 18.786C38.5415 18.786 39.0635 18.534 39.4955 18.03C39.9395 17.526 40.1615 16.866 40.1615 16.05C40.1615 15.438 40.0055 14.958 39.6935 14.61C39.3815 14.262 38.9555 14.088 38.4155 14.088ZM45.0425 21V11.838H47.7785L47.6525 13.8C48.0245 13.128 48.4985 12.612 49.0745 12.252C49.6625 11.88 50.3165 11.694 51.0365 11.694C52.1285 11.694 52.9445 12.066 53.4845 12.81C54.0245 13.542 54.2885 14.598 54.2765 15.978L54.2405 21H51.4865L51.5225 16.176C51.5345 15.552 51.4385 15.078 51.2345 14.754C51.0425 14.418 50.7305 14.25 50.2985 14.25C49.9385 14.25 49.6085 14.358 49.3085 14.574C49.0085 14.778 48.7445 15.132 48.5165 15.636C48.3005 16.14 48.1265 16.83 47.9945 17.706C47.8625 18.582 47.7905 19.68 47.7785 21H45.0425ZM60.4513 21.18C59.5033 21.18 58.6813 21 57.9853 20.64C57.2893 20.268 56.7493 19.74 56.3653 19.056C55.9813 18.372 55.7893 17.556 55.7893 16.608C55.7893 15.636 55.9933 14.784 56.4013 14.052C56.8213 13.308 57.3973 12.732 58.1293 12.324C58.8613 11.904 59.7133 11.694 60.6853 11.694C61.4773 11.694 62.1793 11.85 62.7913 12.162C63.4033 12.474 63.8953 12.96 64.2673 13.62L62.3233 15.096C62.1313 14.748 61.9033 14.496 61.6393 14.34C61.3873 14.184 61.0693 14.106 60.6853 14.106C60.0973 14.106 59.6113 14.334 59.2273 14.79C58.8433 15.234 58.6513 15.822 58.6513 16.554C58.6513 17.262 58.8193 17.808 59.1553 18.192C59.5033 18.576 60.0013 18.768 60.6493 18.768C60.9973 18.768 61.3153 18.69 61.6033 18.534C61.9033 18.366 62.1553 18.108 62.3593 17.76L64.2493 19.272C63.8413 19.968 63.3013 20.46 62.6293 20.748C61.9693 21.036 61.2433 21.18 60.4513 21.18ZM69.371 21.18C68.351 21.18 67.469 20.994 66.725 20.622C65.981 20.238 65.405 19.704 64.997 19.02C64.589 18.324 64.385 17.502 64.385 16.554C64.385 15.594 64.589 14.748 64.997 14.016C65.417 13.284 65.975 12.714 66.671 12.306C67.379 11.898 68.177 11.694 69.065 11.694C70.073 11.694 70.895 11.922 71.531 12.378C72.167 12.834 72.605 13.482 72.845 14.322C73.097 15.15 73.151 16.116 73.007 17.22H67.193C67.265 17.676 67.505 18.06 67.913 18.372C68.321 18.672 68.879 18.822 69.587 18.822C69.911 18.822 70.253 18.756 70.613 18.624C70.973 18.48 71.279 18.27 71.531 17.994L73.061 19.614C72.665 20.094 72.173 20.478 71.585 20.766C71.009 21.042 70.271 21.18 69.371 21.18ZM69.119 13.692C68.639 13.692 68.231 13.836 67.895 14.124C67.571 14.412 67.355 14.814 67.247 15.33H70.685C70.697 14.766 70.559 14.352 70.271 14.088C69.995 13.824 69.611 13.692 69.119 13.692ZM83.6968 7.68V21H80.9248L81.0148 19.65C80.3548 20.67 79.3768 21.18 78.0808 21.18C77.2648 21.18 76.5688 20.994 75.9928 20.622C75.4168 20.25 74.9788 19.734 74.6788 19.074C74.3788 18.414 74.2288 17.658 74.2288 16.806C74.2288 15.786 74.4388 14.892 74.8588 14.124C75.2788 13.356 75.8428 12.762 76.5508 12.342C77.2588 11.91 78.0508 11.694 78.9268 11.694C79.3348 11.694 79.7128 11.754 80.0608 11.874C80.4088 11.994 80.7088 12.162 80.9608 12.378L80.9428 11.838V7.68H83.6968ZM79.1968 14.088C78.5368 14.088 78.0148 14.334 77.6308 14.826C77.2588 15.318 77.0728 15.948 77.0728 16.716C77.0728 17.376 77.2168 17.886 77.5048 18.246C77.8048 18.606 78.2068 18.786 78.7108 18.786C79.3228 18.786 79.8448 18.534 80.2768 18.03C80.7208 17.526 80.9428 16.866 80.9428 16.05C80.9428 15.438 80.7868 14.958 80.4748 14.61C80.1628 14.262 79.7368 14.088 79.1968 14.088ZM93.3649 21H90.5029V8.22H95.2009C97.0009 8.22 98.3509 8.568 99.2509 9.264C100.151 9.948 100.601 10.956 100.601 12.288C100.601 13.608 100.091 14.646 99.0709 15.402C98.0629 16.158 96.6409 16.536 94.8049 16.536H93.3649V21ZM95.1829 10.614H93.3649V14.106H94.9489C95.8729 14.106 96.5569 13.968 97.0009 13.692C97.4449 13.416 97.6669 12.96 97.6669 12.324C97.6669 11.688 97.4629 11.244 97.0549 10.992C96.6589 10.74 96.0349 10.614 95.1829 10.614ZM108.155 14.502C107.915 14.406 107.591 14.358 107.183 14.358C106.559 14.358 106.061 14.58 105.689 15.024C105.317 15.456 105.047 16.164 104.879 17.148C104.711 18.12 104.627 19.404 104.627 21H101.891V15.06L101.855 11.838H104.609L104.483 14.124C104.807 13.248 105.239 12.624 105.779 12.252C106.331 11.88 106.919 11.694 107.543 11.694C107.747 11.694 107.933 11.706 108.101 11.73C108.281 11.754 108.461 11.796 108.641 11.856L108.155 14.502ZM113.72 11.694C115.148 11.694 116.264 12.102 117.068 12.918C117.884 13.734 118.292 14.838 118.292 16.23C118.292 17.178 118.088 18.024 117.68 18.768C117.272 19.512 116.696 20.1 115.952 20.532C115.208 20.964 114.332 21.18 113.324 21.18C111.908 21.18 110.792 20.772 109.976 19.956C109.172 19.14 108.77 18.042 108.77 16.662C108.77 15.702 108.974 14.85 109.382 14.106C109.79 13.362 110.366 12.774 111.11 12.342C111.854 11.91 112.724 11.694 113.72 11.694ZM113.45 18.786C114.062 18.786 114.548 18.558 114.908 18.102C115.28 17.634 115.466 17.01 115.466 16.23C115.466 15.558 115.304 15.036 114.98 14.664C114.656 14.28 114.212 14.088 113.648 14.088C113.024 14.088 112.526 14.322 112.154 14.79C111.794 15.246 111.614 15.864 111.614 16.644C111.614 17.316 111.77 17.844 112.082 18.228C112.406 18.6 112.862 18.786 113.45 18.786ZM128.96 7.68V21H126.188L126.278 19.65C125.618 20.67 124.64 21.18 123.344 21.18C122.528 21.18 121.832 20.994 121.256 20.622C120.68 20.25 120.242 19.734 119.942 19.074C119.642 18.414 119.492 17.658 119.492 16.806C119.492 15.786 119.702 14.892 120.122 14.124C120.542 13.356 121.106 12.762 121.814 12.342C122.522 11.91 123.314 11.694 124.19 11.694C124.598 11.694 124.976 11.754 125.324 11.874C125.672 11.994 125.972 12.162 126.224 12.378L126.206 11.838V7.68H128.96ZM124.46 14.088C123.8 14.088 123.278 14.334 122.894 14.826C122.522 15.318 122.336 15.948 122.336 16.716C122.336 17.376 122.48 17.886 122.768 18.246C123.068 18.606 123.47 18.786 123.974 18.786C124.586 18.786 125.108 18.534 125.54 18.03C125.984 17.526 126.206 16.866 126.206 16.05C126.206 15.438 126.05 14.958 125.738 14.61C125.426 14.262 125 14.088 124.46 14.088ZM134.111 21.18C133.055 21.18 132.257 20.82 131.717 20.1C131.177 19.38 130.913 18.378 130.925 17.094L130.961 11.838H133.715L133.679 16.878C133.679 17.418 133.775 17.844 133.967 18.156C134.159 18.468 134.459 18.624 134.867 18.624C135.215 18.624 135.533 18.516 135.821 18.3C136.109 18.084 136.361 17.724 136.577 17.22C136.793 16.716 136.961 16.026 137.081 15.15C137.213 14.274 137.285 13.17 137.297 11.838H139.961V21H137.207L137.333 19.236C136.973 19.86 136.517 20.34 135.965 20.676C135.413 21.012 134.795 21.18 134.111 21.18ZM146.268 21.18C145.32 21.18 144.498 21 143.802 20.64C143.106 20.268 142.566 19.74 142.182 19.056C141.798 18.372 141.606 17.556 141.606 16.608C141.606 15.636 141.81 14.784 142.218 14.052C142.638 13.308 143.214 12.732 143.946 12.324C144.678 11.904 145.53 11.694 146.502 11.694C147.294 11.694 147.996 11.85 148.608 12.162C149.22 12.474 149.712 12.96 150.084 13.62L148.14 15.096C147.948 14.748 147.72 14.496 147.456 14.34C147.204 14.184 146.886 14.106 146.502 14.106C145.914 14.106 145.428 14.334 145.044 14.79C144.66 15.234 144.468 15.822 144.468 16.554C144.468 17.262 144.636 17.808 144.972 18.192C145.32 18.576 145.818 18.768 146.466 18.768C146.814 18.768 147.132 18.69 147.42 18.534C147.72 18.366 147.972 18.108 148.176 17.76L150.066 19.272C149.658 19.968 149.118 20.46 148.446 20.748C147.786 21.036 147.06 21.18 146.268 21.18ZM155.231 21.18C154.103 21.18 153.209 20.868 152.549 20.244C151.889 19.608 151.565 18.774 151.577 17.742L151.649 14.124H150.137V11.838H151.685L151.703 9.966H154.439L154.421 11.838H157.283V14.124H154.385L154.331 17.436C154.331 17.868 154.445 18.204 154.673 18.444C154.901 18.684 155.243 18.804 155.699 18.804C155.963 18.804 156.215 18.774 156.455 18.714C156.707 18.642 156.965 18.51 157.229 18.318L158.021 20.424C157.409 20.928 156.479 21.18 155.231 21.18ZM161.562 11.838V21H158.808V11.838H161.562ZM160.176 10.758C159.648 10.758 159.228 10.596 158.916 10.272C158.604 9.948 158.448 9.564 158.448 9.12C158.448 8.676 158.598 8.292 158.898 7.968C159.21 7.644 159.636 7.482 160.176 7.482C160.704 7.482 161.124 7.644 161.436 7.968C161.748 8.292 161.904 8.676 161.904 9.12C161.904 9.564 161.748 9.948 161.436 10.272C161.124 10.596 160.704 10.758 160.176 10.758ZM170.032 11.838H172.768L169.402 21H165.478L162.598 11.838H165.586L167.602 18.732L170.032 11.838ZM176.222 11.838V21H173.468V11.838H176.222ZM174.836 10.758C174.308 10.758 173.888 10.596 173.576 10.272C173.264 9.948 173.108 9.564 173.108 9.12C173.108 8.676 173.258 8.292 173.558 7.968C173.87 7.644 174.296 7.482 174.836 7.482C175.364 7.482 175.784 7.644 176.096 7.968C176.408 8.292 176.564 8.676 176.564 9.12C176.564 9.564 176.408 9.948 176.096 10.272C175.784 10.596 175.364 10.758 174.836 10.758ZM182.442 21.18C181.314 21.18 180.42 20.868 179.76 20.244C179.1 19.608 178.776 18.774 178.788 17.742L178.86 14.124H177.348V11.838H178.896L178.914 9.966H181.65L181.632 11.838H184.494V14.124H181.596L181.542 17.436C181.542 17.868 181.656 18.204 181.884 18.444C182.112 18.684 182.454 18.804 182.91 18.804C183.174 18.804 183.426 18.774 183.666 18.714C183.918 18.642 184.176 18.51 184.44 18.318L185.232 20.424C184.62 20.928 183.69 21.18 182.442 21.18ZM189.225 24.78C188.853 24.78 188.457 24.75 188.037 24.69C187.617 24.642 187.209 24.564 186.813 24.456C186.429 24.348 186.105 24.204 185.841 24.024L186.489 21.684C186.909 21.888 187.347 22.05 187.803 22.17C188.271 22.302 188.799 22.368 189.387 22.368C190.383 22.368 191.091 22.14 191.511 21.684C191.943 21.228 192.189 20.514 192.249 19.542L192.303 18.804C191.931 19.44 191.463 19.938 190.899 20.298C190.335 20.646 189.699 20.82 188.991 20.82C187.911 20.82 187.101 20.46 186.561 19.74C186.021 19.02 185.757 18.012 185.769 16.716L185.805 11.838H188.559L188.523 16.518C188.523 17.058 188.619 17.484 188.811 17.796C189.003 18.108 189.315 18.264 189.747 18.264C190.239 18.264 190.665 18.066 191.025 17.67C191.385 17.274 191.667 16.614 191.871 15.69C192.075 14.754 192.189 13.47 192.213 11.838H194.877V19.218C194.877 21.138 194.367 22.542 193.347 23.43C192.339 24.33 190.965 24.78 189.225 24.78Z" fill="#F67E7E"/>
</svg>
